<mxfile host="app.diagrams.net" modified="2023-03-14T02:08:08.599Z" agent="5.0 (Windows NT 10.0; Win64; x64) AppleWebKit/537.36 (KHTML, like Gecko) Chrome/110.0.0.0 Safari/537.36" etag="alGe-NtkdbxbmYFvkbjH" version="21.0.6" type="github">
  <diagram name="Page-1" id="13e1069c-82ec-6db2-03f1-153e76fe0fe0">
    <mxGraphModel dx="1434" dy="764" grid="1" gridSize="10" guides="1" tooltips="1" connect="1" arrows="1" fold="1" page="1" pageScale="1" pageWidth="1100" pageHeight="850" background="none" math="0" shadow="0">
      <root>
        <mxCell id="0" />
        <mxCell id="1" parent="0" />
        <mxCell id="7baba1c4bc27f4b0-2" value="前端" style="shape=umlLifeline;perimeter=lifelinePerimeter;whiteSpace=wrap;html=1;container=1;collapsible=0;recursiveResize=0;outlineConnect=0;rounded=1;shadow=0;comic=0;labelBackgroundColor=none;strokeWidth=1;fontFamily=Verdana;fontSize=12;align=center;" parent="1" vertex="1">
          <mxGeometry x="240" y="80" width="100" height="580" as="geometry" />
        </mxCell>
        <mxCell id="7baba1c4bc27f4b0-10" value="" style="html=1;points=[];perimeter=orthogonalPerimeter;rounded=0;shadow=0;comic=0;labelBackgroundColor=none;strokeWidth=1;fontFamily=Verdana;fontSize=12;align=center;" parent="7baba1c4bc27f4b0-2" vertex="1">
          <mxGeometry x="45" y="100" width="10" height="230" as="geometry" />
        </mxCell>
        <mxCell id="7baba1c4bc27f4b0-3" value="后端" style="shape=umlLifeline;perimeter=lifelinePerimeter;whiteSpace=wrap;html=1;container=1;collapsible=0;recursiveResize=0;outlineConnect=0;rounded=1;shadow=0;comic=0;labelBackgroundColor=none;strokeWidth=1;fontFamily=Verdana;fontSize=12;align=center;" parent="1" vertex="1">
          <mxGeometry x="400" y="80" width="100" height="580" as="geometry" />
        </mxCell>
        <mxCell id="7baba1c4bc27f4b0-13" value="" style="html=1;points=[];perimeter=orthogonalPerimeter;rounded=0;shadow=0;comic=0;labelBackgroundColor=none;strokeWidth=1;fontFamily=Verdana;fontSize=12;align=center;" parent="7baba1c4bc27f4b0-3" vertex="1">
          <mxGeometry x="45" y="120" width="10" height="200" as="geometry" />
        </mxCell>
        <mxCell id="7baba1c4bc27f4b0-4" value=":Object" style="shape=umlLifeline;perimeter=lifelinePerimeter;whiteSpace=wrap;html=1;container=1;collapsible=0;recursiveResize=0;outlineConnect=0;rounded=1;shadow=0;comic=0;labelBackgroundColor=none;strokeWidth=1;fontFamily=Verdana;fontSize=12;align=center;" parent="1" vertex="1">
          <mxGeometry x="540" y="80" width="100" height="580" as="geometry" />
        </mxCell>
        <mxCell id="7baba1c4bc27f4b0-5" value=":Object" style="shape=umlLifeline;perimeter=lifelinePerimeter;whiteSpace=wrap;html=1;container=1;collapsible=0;recursiveResize=0;outlineConnect=0;rounded=1;shadow=0;comic=0;labelBackgroundColor=none;strokeWidth=1;fontFamily=Verdana;fontSize=12;align=center;" parent="1" vertex="1">
          <mxGeometry x="680" y="80" width="100" height="580" as="geometry" />
        </mxCell>
        <mxCell id="7baba1c4bc27f4b0-6" value=":Object" style="shape=umlLifeline;perimeter=lifelinePerimeter;whiteSpace=wrap;html=1;container=1;collapsible=0;recursiveResize=0;outlineConnect=0;rounded=1;shadow=0;comic=0;labelBackgroundColor=none;strokeWidth=1;fontFamily=Verdana;fontSize=12;align=center;" parent="1" vertex="1">
          <mxGeometry x="820" y="80" width="100" height="580" as="geometry" />
        </mxCell>
        <mxCell id="7baba1c4bc27f4b0-7" value=":Object" style="shape=umlLifeline;perimeter=lifelinePerimeter;whiteSpace=wrap;html=1;container=1;collapsible=0;recursiveResize=0;outlineConnect=0;rounded=1;shadow=0;comic=0;labelBackgroundColor=none;strokeWidth=1;fontFamily=Verdana;fontSize=12;align=center;" parent="1" vertex="1">
          <mxGeometry x="960" y="80" width="100" height="580" as="geometry" />
        </mxCell>
        <mxCell id="7baba1c4bc27f4b0-8" value="玩家" style="shape=umlLifeline;perimeter=lifelinePerimeter;whiteSpace=wrap;html=1;container=1;collapsible=0;recursiveResize=0;outlineConnect=0;rounded=1;shadow=0;comic=0;labelBackgroundColor=none;strokeWidth=1;fontFamily=Verdana;fontSize=12;align=center;" parent="1" vertex="1">
          <mxGeometry x="100" y="80" width="100" height="580" as="geometry" />
        </mxCell>
        <mxCell id="7baba1c4bc27f4b0-9" value="" style="html=1;points=[];perimeter=orthogonalPerimeter;rounded=0;shadow=0;comic=0;labelBackgroundColor=none;strokeWidth=1;fontFamily=Verdana;fontSize=12;align=center;" parent="7baba1c4bc27f4b0-8" vertex="1">
          <mxGeometry x="45" y="100" width="10" height="440" as="geometry" />
        </mxCell>
        <mxCell id="7baba1c4bc27f4b0-16" value="" style="html=1;points=[];perimeter=orthogonalPerimeter;rounded=0;shadow=0;comic=0;labelBackgroundColor=none;strokeWidth=1;fontFamily=Verdana;fontSize=12;align=center;" parent="1" vertex="1">
          <mxGeometry x="585" y="220" width="10" height="180" as="geometry" />
        </mxCell>
        <mxCell id="7baba1c4bc27f4b0-17" value="dispatch" style="html=1;verticalAlign=bottom;endArrow=block;labelBackgroundColor=none;fontFamily=Verdana;fontSize=12;edgeStyle=elbowEdgeStyle;elbow=vertical;" parent="1" source="7baba1c4bc27f4b0-13" target="7baba1c4bc27f4b0-16" edge="1">
          <mxGeometry relative="1" as="geometry">
            <mxPoint x="510" y="220" as="sourcePoint" />
            <Array as="points">
              <mxPoint x="460" y="220" />
            </Array>
          </mxGeometry>
        </mxCell>
        <mxCell id="7baba1c4bc27f4b0-19" value="" style="html=1;points=[];perimeter=orthogonalPerimeter;rounded=0;shadow=0;comic=0;labelBackgroundColor=none;strokeWidth=1;fontFamily=Verdana;fontSize=12;align=center;" parent="1" vertex="1">
          <mxGeometry x="725" y="230" width="10" height="40" as="geometry" />
        </mxCell>
        <mxCell id="7baba1c4bc27f4b0-20" value="dispatch" style="html=1;verticalAlign=bottom;endArrow=block;entryX=0;entryY=0;labelBackgroundColor=none;fontFamily=Verdana;fontSize=12;edgeStyle=elbowEdgeStyle;elbow=vertical;" parent="1" source="7baba1c4bc27f4b0-16" target="7baba1c4bc27f4b0-19" edge="1">
          <mxGeometry relative="1" as="geometry">
            <mxPoint x="650" y="230" as="sourcePoint" />
          </mxGeometry>
        </mxCell>
        <mxCell id="7baba1c4bc27f4b0-21" value="return" style="html=1;verticalAlign=bottom;endArrow=open;dashed=1;endSize=8;labelBackgroundColor=none;fontFamily=Verdana;fontSize=12;edgeStyle=elbowEdgeStyle;elbow=vertical;" parent="1" source="7baba1c4bc27f4b0-19" target="7baba1c4bc27f4b0-16" edge="1">
          <mxGeometry relative="1" as="geometry">
            <mxPoint x="650" y="306" as="targetPoint" />
            <Array as="points">
              <mxPoint x="670" y="260" />
              <mxPoint x="700" y="260" />
            </Array>
          </mxGeometry>
        </mxCell>
        <mxCell id="7baba1c4bc27f4b0-22" value="" style="html=1;points=[];perimeter=orthogonalPerimeter;rounded=0;shadow=0;comic=0;labelBackgroundColor=none;strokeWidth=1;fontFamily=Verdana;fontSize=12;align=center;" parent="1" vertex="1">
          <mxGeometry x="585" y="440" width="10" height="140" as="geometry" />
        </mxCell>
        <mxCell id="7baba1c4bc27f4b0-23" value="dispatch" style="html=1;verticalAlign=bottom;endArrow=block;entryX=0;entryY=0;labelBackgroundColor=none;fontFamily=Verdana;fontSize=12;" parent="1" source="7baba1c4bc27f4b0-9" target="7baba1c4bc27f4b0-22" edge="1">
          <mxGeometry relative="1" as="geometry">
            <mxPoint x="510" y="420" as="sourcePoint" />
          </mxGeometry>
        </mxCell>
        <mxCell id="7baba1c4bc27f4b0-25" value="" style="html=1;points=[];perimeter=orthogonalPerimeter;rounded=0;shadow=0;comic=0;labelBackgroundColor=none;strokeColor=#000000;strokeWidth=1;fillColor=#FFFFFF;fontFamily=Verdana;fontSize=12;fontColor=#000000;align=center;" parent="1" vertex="1">
          <mxGeometry x="1005" y="460" width="10" height="30" as="geometry" />
        </mxCell>
        <mxCell id="7baba1c4bc27f4b0-26" value="dispatch" style="html=1;verticalAlign=bottom;endArrow=block;entryX=0;entryY=0;labelBackgroundColor=none;fontFamily=Verdana;fontSize=12;" parent="1" source="7baba1c4bc27f4b0-22" target="7baba1c4bc27f4b0-25" edge="1">
          <mxGeometry relative="1" as="geometry">
            <mxPoint x="930" y="340" as="sourcePoint" />
          </mxGeometry>
        </mxCell>
        <mxCell id="7baba1c4bc27f4b0-27" value="return" style="html=1;verticalAlign=bottom;endArrow=open;dashed=1;endSize=8;exitX=0;exitY=0.95;labelBackgroundColor=none;fontFamily=Verdana;fontSize=12;" parent="1" source="7baba1c4bc27f4b0-25" target="7baba1c4bc27f4b0-22" edge="1">
          <mxGeometry relative="1" as="geometry">
            <mxPoint x="930" y="416" as="targetPoint" />
          </mxGeometry>
        </mxCell>
        <mxCell id="7baba1c4bc27f4b0-28" value="" style="html=1;points=[];perimeter=orthogonalPerimeter;rounded=0;shadow=0;comic=0;labelBackgroundColor=none;strokeWidth=1;fontFamily=Verdana;fontSize=12;align=center;" parent="1" vertex="1">
          <mxGeometry x="870" y="550" width="10" height="60" as="geometry" />
        </mxCell>
        <mxCell id="7baba1c4bc27f4b0-29" value="dispatch" style="html=1;verticalAlign=bottom;endArrow=block;entryX=0;entryY=0;labelBackgroundColor=none;fontFamily=Verdana;fontSize=12;edgeStyle=elbowEdgeStyle;elbow=vertical;" parent="1" source="7baba1c4bc27f4b0-37" target="7baba1c4bc27f4b0-28" edge="1">
          <mxGeometry relative="1" as="geometry">
            <mxPoint x="800" y="550" as="sourcePoint" />
          </mxGeometry>
        </mxCell>
        <mxCell id="7baba1c4bc27f4b0-30" value="return" style="html=1;verticalAlign=bottom;endArrow=open;dashed=1;endSize=8;labelBackgroundColor=none;fontFamily=Verdana;fontSize=12;edgeStyle=elbowEdgeStyle;elbow=vertical;" parent="1" source="7baba1c4bc27f4b0-28" target="7baba1c4bc27f4b0-9" edge="1">
          <mxGeometry relative="1" as="geometry">
            <mxPoint x="800" y="626" as="targetPoint" />
            <Array as="points">
              <mxPoint x="570" y="600" />
            </Array>
          </mxGeometry>
        </mxCell>
        <mxCell id="7baba1c4bc27f4b0-11" value="dispatch" style="html=1;verticalAlign=bottom;endArrow=block;entryX=0;entryY=0;labelBackgroundColor=none;fontFamily=Verdana;fontSize=12;edgeStyle=elbowEdgeStyle;elbow=vertical;" parent="1" source="7baba1c4bc27f4b0-9" target="7baba1c4bc27f4b0-10" edge="1">
          <mxGeometry relative="1" as="geometry">
            <mxPoint x="220" y="190" as="sourcePoint" />
          </mxGeometry>
        </mxCell>
        <mxCell id="7baba1c4bc27f4b0-14" value="dispatch" style="html=1;verticalAlign=bottom;endArrow=block;entryX=0;entryY=0;labelBackgroundColor=none;fontFamily=Verdana;fontSize=12;edgeStyle=elbowEdgeStyle;elbow=vertical;" parent="1" source="7baba1c4bc27f4b0-10" target="7baba1c4bc27f4b0-13" edge="1">
          <mxGeometry relative="1" as="geometry">
            <mxPoint x="370" y="200" as="sourcePoint" />
          </mxGeometry>
        </mxCell>
        <mxCell id="7baba1c4bc27f4b0-34" value="" style="html=1;points=[];perimeter=orthogonalPerimeter;rounded=0;shadow=0;comic=0;labelBackgroundColor=none;strokeWidth=1;fontFamily=Verdana;fontSize=12;align=center;" parent="1" vertex="1">
          <mxGeometry x="590" y="300" width="10" height="70" as="geometry" />
        </mxCell>
        <mxCell id="7baba1c4bc27f4b0-35" value="dispatch" style="html=1;verticalAlign=bottom;endArrow=block;labelBackgroundColor=none;fontFamily=Verdana;fontSize=12;elbow=vertical;edgeStyle=orthogonalEdgeStyle;curved=1;entryX=1;entryY=0.286;entryPerimeter=0;exitX=1.038;exitY=0.345;exitPerimeter=0;" parent="1" source="7baba1c4bc27f4b0-16" target="7baba1c4bc27f4b0-34" edge="1">
          <mxGeometry relative="1" as="geometry">
            <mxPoint x="465" y="230" as="sourcePoint" />
            <mxPoint x="595" y="230" as="targetPoint" />
            <Array as="points">
              <mxPoint x="650" y="282" />
              <mxPoint x="650" y="320" />
            </Array>
          </mxGeometry>
        </mxCell>
        <mxCell id="7baba1c4bc27f4b0-36" value="dispatch" style="html=1;verticalAlign=bottom;endArrow=block;labelBackgroundColor=none;fontFamily=Verdana;fontSize=12;elbow=vertical;edgeStyle=orthogonalEdgeStyle;curved=1;exitX=1.066;exitY=0.713;exitPerimeter=0;" parent="1" source="7baba1c4bc27f4b0-34" edge="1">
          <mxGeometry relative="1" as="geometry">
            <mxPoint x="610.3333333333333" y="350" as="sourcePoint" />
            <mxPoint x="595" y="389" as="targetPoint" />
            <Array as="points">
              <mxPoint x="650" y="350" />
              <mxPoint x="650" y="389" />
            </Array>
          </mxGeometry>
        </mxCell>
        <mxCell id="7baba1c4bc27f4b0-37" value="" style="html=1;points=[];perimeter=orthogonalPerimeter;rounded=0;shadow=0;comic=0;labelBackgroundColor=none;strokeWidth=1;fontFamily=Verdana;fontSize=12;align=center;" parent="1" vertex="1">
          <mxGeometry x="590" y="520" width="10" height="40" as="geometry" />
        </mxCell>
        <mxCell id="7baba1c4bc27f4b0-39" value="dispatch" style="html=1;verticalAlign=bottom;endArrow=block;labelBackgroundColor=none;fontFamily=Verdana;fontSize=12;elbow=vertical;edgeStyle=orthogonalEdgeStyle;curved=1;entryX=1;entryY=0.286;entryPerimeter=0;exitX=1.038;exitY=0.345;exitPerimeter=0;" parent="1" edge="1">
          <mxGeometry relative="1" as="geometry">
            <mxPoint x="595.3333333333335" y="501" as="sourcePoint" />
            <mxPoint x="600.3333333333335" y="539.3333333333334" as="targetPoint" />
            <Array as="points">
              <mxPoint x="650" y="501" />
              <mxPoint x="650" y="539" />
            </Array>
          </mxGeometry>
        </mxCell>
        <mxCell id="7baba1c4bc27f4b0-40" value="Note" style="shape=note;whiteSpace=wrap;html=1;size=14;verticalAlign=top;align=left;spacingTop=-6;rounded=0;shadow=0;comic=0;labelBackgroundColor=none;strokeWidth=1;fontFamily=Verdana;fontSize=12" parent="1" vertex="1">
          <mxGeometry x="100" y="30" width="100" height="35" as="geometry" />
        </mxCell>
        <mxCell id="7baba1c4bc27f4b0-41" value="Note" style="shape=note;whiteSpace=wrap;html=1;size=14;verticalAlign=top;align=left;spacingTop=-6;rounded=0;shadow=0;comic=0;labelBackgroundColor=none;strokeWidth=1;fontFamily=Verdana;fontSize=12" parent="1" vertex="1">
          <mxGeometry x="240" y="30" width="100" height="35" as="geometry" />
        </mxCell>
        <mxCell id="7baba1c4bc27f4b0-42" value="Note" style="shape=note;whiteSpace=wrap;html=1;size=14;verticalAlign=top;align=left;spacingTop=-6;rounded=0;shadow=0;comic=0;labelBackgroundColor=none;strokeWidth=1;fontFamily=Verdana;fontSize=12" parent="1" vertex="1">
          <mxGeometry x="400" y="30" width="100" height="35" as="geometry" />
        </mxCell>
        <mxCell id="7baba1c4bc27f4b0-43" value="Note" style="shape=note;whiteSpace=wrap;html=1;size=14;verticalAlign=top;align=left;spacingTop=-6;rounded=0;shadow=0;comic=0;labelBackgroundColor=none;strokeWidth=1;fontFamily=Verdana;fontSize=12" parent="1" vertex="1">
          <mxGeometry x="540" y="30" width="100" height="35" as="geometry" />
        </mxCell>
        <mxCell id="7baba1c4bc27f4b0-44" value="Note" style="shape=note;whiteSpace=wrap;html=1;size=14;verticalAlign=top;align=left;spacingTop=-6;rounded=0;shadow=0;comic=0;labelBackgroundColor=none;strokeWidth=1;fontFamily=Verdana;fontSize=12" parent="1" vertex="1">
          <mxGeometry x="680" y="30" width="100" height="35" as="geometry" />
        </mxCell>
        <mxCell id="7baba1c4bc27f4b0-45" value="Note" style="shape=note;whiteSpace=wrap;html=1;size=14;verticalAlign=top;align=left;spacingTop=-6;rounded=0;shadow=0;comic=0;labelBackgroundColor=none;strokeWidth=1;fontFamily=Verdana;fontSize=12" parent="1" vertex="1">
          <mxGeometry x="820" y="30" width="100" height="35" as="geometry" />
        </mxCell>
        <mxCell id="7baba1c4bc27f4b0-46" value="Note" style="shape=note;whiteSpace=wrap;html=1;size=14;verticalAlign=top;align=left;spacingTop=-6;rounded=0;shadow=0;comic=0;labelBackgroundColor=none;strokeWidth=1;fontFamily=Verdana;fontSize=12" parent="1" vertex="1">
          <mxGeometry x="960" y="30" width="100" height="35" as="geometry" />
        </mxCell>
        <mxCell id="AIsaKvMPGWrzaPVtFiuC-1" value="前端" style="shape=umlLifeline;perimeter=lifelinePerimeter;whiteSpace=wrap;html=1;container=1;collapsible=0;recursiveResize=0;outlineConnect=0;rounded=1;shadow=0;comic=0;labelBackgroundColor=none;strokeWidth=1;fontFamily=Verdana;fontSize=12;align=center;" parent="1" vertex="1">
          <mxGeometry x="200" y="840" width="100" height="1210" as="geometry" />
        </mxCell>
        <mxCell id="AIsaKvMPGWrzaPVtFiuC-2" value="" style="html=1;points=[];perimeter=orthogonalPerimeter;rounded=0;shadow=0;comic=0;labelBackgroundColor=none;strokeWidth=1;fontFamily=Verdana;fontSize=12;align=center;" parent="AIsaKvMPGWrzaPVtFiuC-1" vertex="1">
          <mxGeometry x="45" y="100" width="10" height="400" as="geometry" />
        </mxCell>
        <mxCell id="AIsaKvMPGWrzaPVtFiuC-52" value="根据返回Map将领取的礼包价格按钮变成印章" style="html=1;verticalAlign=bottom;endArrow=block;labelBackgroundColor=none;fontFamily=Verdana;fontSize=12;elbow=vertical;edgeStyle=orthogonalEdgeStyle;curved=1;exitX=1.066;exitY=0.713;exitPerimeter=0;" parent="AIsaKvMPGWrzaPVtFiuC-1" edge="1">
          <mxGeometry x="0.0039" relative="1" as="geometry">
            <mxPoint x="68.16000000000008" y="410.0100000000002" as="sourcePoint" />
            <mxPoint x="62.5" y="449.0999999999999" as="targetPoint" />
            <Array as="points">
              <mxPoint x="117.5" y="410.0999999999999" />
              <mxPoint x="117.5" y="449.0999999999999" />
            </Array>
            <mxPoint as="offset" />
          </mxGeometry>
        </mxCell>
        <mxCell id="AIsaKvMPGWrzaPVtFiuC-55" value="" style="html=1;points=[];perimeter=orthogonalPerimeter;rounded=0;shadow=0;comic=0;labelBackgroundColor=none;strokeWidth=1;fontFamily=Verdana;fontSize=12;align=center;" parent="AIsaKvMPGWrzaPVtFiuC-1" vertex="1">
          <mxGeometry x="45" y="570" width="10" height="340" as="geometry" />
        </mxCell>
        <mxCell id="AIsaKvMPGWrzaPVtFiuC-54" value="购买任意礼包" style="html=1;verticalAlign=bottom;endArrow=block;entryX=0;entryY=0;labelBackgroundColor=none;fontFamily=Verdana;fontSize=12;edgeStyle=elbowEdgeStyle;elbow=vertical;" parent="AIsaKvMPGWrzaPVtFiuC-1" edge="1">
          <mxGeometry relative="1" as="geometry">
            <mxPoint x="-125" y="580" as="sourcePoint" />
            <mxPoint x="45" y="580.0000000000032" as="targetPoint" />
          </mxGeometry>
        </mxCell>
        <mxCell id="AIsaKvMPGWrzaPVtFiuC-61" value="更新页签or根据返回Map将领取的礼包价格按钮变成印章" style="html=1;verticalAlign=bottom;endArrow=block;labelBackgroundColor=none;fontFamily=Verdana;fontSize=12;elbow=vertical;edgeStyle=orthogonalEdgeStyle;curved=1;exitX=1.066;exitY=0.713;exitPerimeter=0;" parent="AIsaKvMPGWrzaPVtFiuC-1" edge="1">
          <mxGeometry x="0.0039" relative="1" as="geometry">
            <mxPoint x="60.66000000000008" y="740.0100000000002" as="sourcePoint" />
            <mxPoint x="55" y="779.0999999999999" as="targetPoint" />
            <Array as="points">
              <mxPoint x="110" y="740.0999999999999" />
              <mxPoint x="110" y="779.0999999999999" />
            </Array>
            <mxPoint as="offset" />
          </mxGeometry>
        </mxCell>
        <mxCell id="AIsaKvMPGWrzaPVtFiuC-62" value="return 更新礼包or页签" style="html=1;verticalAlign=bottom;endArrow=open;dashed=1;endSize=8;labelBackgroundColor=none;fontFamily=Verdana;fontSize=12;edgeStyle=elbowEdgeStyle;elbow=vertical;" parent="AIsaKvMPGWrzaPVtFiuC-1" edge="1">
          <mxGeometry relative="1" as="geometry">
            <mxPoint x="-120" y="794" as="targetPoint" />
            <Array as="points">
              <mxPoint x="275" y="794" />
            </Array>
            <mxPoint x="40" y="790" as="sourcePoint" />
          </mxGeometry>
        </mxCell>
        <mxCell id="AIsaKvMPGWrzaPVtFiuC-3" value="后端" style="shape=umlLifeline;perimeter=lifelinePerimeter;whiteSpace=wrap;html=1;container=1;collapsible=0;recursiveResize=0;outlineConnect=0;rounded=1;shadow=0;comic=0;labelBackgroundColor=none;strokeWidth=1;fontFamily=Verdana;fontSize=12;align=center;" parent="1" vertex="1">
          <mxGeometry x="915" y="850" width="100" height="1260" as="geometry" />
        </mxCell>
        <mxCell id="AIsaKvMPGWrzaPVtFiuC-4" value="" style="html=1;points=[];perimeter=orthogonalPerimeter;rounded=0;shadow=0;comic=0;labelBackgroundColor=none;strokeWidth=1;fontFamily=Verdana;fontSize=12;align=center;" parent="AIsaKvMPGWrzaPVtFiuC-3" vertex="1">
          <mxGeometry x="45" y="70" width="10" height="200" as="geometry" />
        </mxCell>
        <mxCell id="AIsaKvMPGWrzaPVtFiuC-56" value="" style="html=1;points=[];perimeter=orthogonalPerimeter;rounded=0;shadow=0;comic=0;labelBackgroundColor=none;strokeWidth=1;fontFamily=Verdana;fontSize=12;align=center;" parent="AIsaKvMPGWrzaPVtFiuC-3" vertex="1">
          <mxGeometry x="45" y="570" width="10" height="200" as="geometry" />
        </mxCell>
        <mxCell id="AIsaKvMPGWrzaPVtFiuC-9" value="玩家" style="shape=umlLifeline;perimeter=lifelinePerimeter;whiteSpace=wrap;html=1;container=1;collapsible=0;recursiveResize=0;outlineConnect=0;rounded=1;shadow=0;comic=0;labelBackgroundColor=none;strokeWidth=1;fontFamily=Verdana;fontSize=12;align=center;" parent="1" vertex="1">
          <mxGeometry x="20" y="840" width="100" height="1180" as="geometry" />
        </mxCell>
        <mxCell id="AIsaKvMPGWrzaPVtFiuC-10" value="" style="html=1;points=[];perimeter=orthogonalPerimeter;rounded=0;shadow=0;comic=0;labelBackgroundColor=none;strokeWidth=1;fontFamily=Verdana;fontSize=12;align=center;" parent="AIsaKvMPGWrzaPVtFiuC-9" vertex="1">
          <mxGeometry x="45" y="100" width="10" height="970" as="geometry" />
        </mxCell>
        <mxCell id="AIsaKvMPGWrzaPVtFiuC-24" value="点击进入活动页面" style="html=1;verticalAlign=bottom;endArrow=block;entryX=0;entryY=0;labelBackgroundColor=none;fontFamily=Verdana;fontSize=12;edgeStyle=elbowEdgeStyle;elbow=vertical;" parent="1" source="AIsaKvMPGWrzaPVtFiuC-10" target="AIsaKvMPGWrzaPVtFiuC-2" edge="1">
          <mxGeometry relative="1" as="geometry">
            <mxPoint x="230" y="960" as="sourcePoint" />
          </mxGeometry>
        </mxCell>
        <mxCell id="AIsaKvMPGWrzaPVtFiuC-31" value="后端定义一个有序Map&amp;lt;页签ID，已领取礼包IDSet&amp;gt;" style="shape=note;whiteSpace=wrap;html=1;size=14;verticalAlign=top;align=left;spacingTop=-6;rounded=0;shadow=0;comic=0;labelBackgroundColor=none;strokeWidth=1;fontFamily=Verdana;fontSize=12" parent="1" vertex="1">
          <mxGeometry x="1005" y="930" width="260" height="60" as="geometry" />
        </mxCell>
        <mxCell id="AIsaKvMPGWrzaPVtFiuC-32" value="配置" style="shape=umlLifeline;perimeter=lifelinePerimeter;whiteSpace=wrap;html=1;container=1;collapsible=0;recursiveResize=0;outlineConnect=0;rounded=1;shadow=0;comic=0;labelBackgroundColor=none;strokeWidth=1;fontFamily=Verdana;fontSize=12;align=center;" parent="1" vertex="1">
          <mxGeometry x="620" y="840" width="100" height="1230" as="geometry" />
        </mxCell>
        <mxCell id="AIsaKvMPGWrzaPVtFiuC-33" value="" style="html=1;points=[];perimeter=orthogonalPerimeter;rounded=0;shadow=0;comic=0;labelBackgroundColor=none;strokeWidth=1;fontFamily=Verdana;fontSize=12;align=center;" parent="AIsaKvMPGWrzaPVtFiuC-32" vertex="1">
          <mxGeometry x="45" y="230" width="10" height="200" as="geometry" />
        </mxCell>
        <mxCell id="AIsaKvMPGWrzaPVtFiuC-65" value="" style="html=1;points=[];perimeter=orthogonalPerimeter;rounded=0;shadow=0;comic=0;labelBackgroundColor=none;strokeWidth=1;fontFamily=Verdana;fontSize=12;align=center;" parent="AIsaKvMPGWrzaPVtFiuC-32" vertex="1">
          <mxGeometry x="45" y="130" width="10" height="50" as="geometry" />
        </mxCell>
        <mxCell id="AIsaKvMPGWrzaPVtFiuC-69" value="" style="html=1;points=[];perimeter=orthogonalPerimeter;rounded=0;shadow=0;comic=0;labelBackgroundColor=none;strokeWidth=1;fontFamily=Verdana;fontSize=12;align=center;" parent="AIsaKvMPGWrzaPVtFiuC-32" vertex="1">
          <mxGeometry x="45" y="600" width="10" height="50" as="geometry" />
        </mxCell>
        <mxCell id="AIsaKvMPGWrzaPVtFiuC-43" value="获取可以展示的页签" style="html=1;verticalAlign=bottom;endArrow=block;labelBackgroundColor=none;fontFamily=Verdana;fontSize=12;edgeStyle=elbowEdgeStyle;elbow=vertical;" parent="1" edge="1">
          <mxGeometry relative="1" as="geometry">
            <mxPoint x="260" y="950" as="sourcePoint" />
            <mxPoint x="960" y="950" as="targetPoint" />
          </mxGeometry>
        </mxCell>
        <mxCell id="AIsaKvMPGWrzaPVtFiuC-44" value="活动是否开启&amp;amp;存在为领取礼包的页签" style="shape=note;whiteSpace=wrap;html=1;size=14;verticalAlign=top;align=left;spacingTop=-6;rounded=0;shadow=0;comic=0;labelBackgroundColor=none;strokeWidth=1;fontFamily=Verdana;fontSize=12" parent="1" vertex="1">
          <mxGeometry x="30" y="790" width="260" height="35" as="geometry" />
        </mxCell>
        <mxCell id="AIsaKvMPGWrzaPVtFiuC-47" value="根据活动ID和页签ID，在menulayer获取对应的页签名称；" style="html=1;verticalAlign=bottom;endArrow=block;labelBackgroundColor=none;fontFamily=Verdana;fontSize=12;edgeStyle=elbowEdgeStyle;elbow=vertical;" parent="1" edge="1">
          <mxGeometry relative="1" as="geometry">
            <mxPoint x="260" y="1090" as="sourcePoint" />
            <mxPoint x="660" y="1090" as="targetPoint" />
            <mxPoint as="offset" />
          </mxGeometry>
        </mxCell>
        <mxCell id="AIsaKvMPGWrzaPVtFiuC-48" value="return" style="html=1;verticalAlign=bottom;endArrow=open;dashed=1;endSize=8;labelBackgroundColor=none;fontFamily=Verdana;fontSize=12;edgeStyle=elbowEdgeStyle;elbow=vertical;" parent="1" edge="1">
          <mxGeometry relative="1" as="geometry">
            <mxPoint x="260" y="1110" as="targetPoint" />
            <Array as="points">
              <mxPoint x="655" y="1110" />
            </Array>
            <mxPoint x="660" y="1110" as="sourcePoint" />
          </mxGeometry>
        </mxCell>
        <mxCell id="AIsaKvMPGWrzaPVtFiuC-50" value="根据活动ID和礼包ID，往fightstringname获取对应的礼包名称；" style="html=1;verticalAlign=bottom;endArrow=block;labelBackgroundColor=none;fontFamily=Verdana;fontSize=12;edgeStyle=elbowEdgeStyle;elbow=vertical;" parent="1" edge="1">
          <mxGeometry x="0.15" y="10" relative="1" as="geometry">
            <mxPoint x="260" y="1170" as="sourcePoint" />
            <mxPoint x="660" y="1170" as="targetPoint" />
            <mxPoint as="offset" />
          </mxGeometry>
        </mxCell>
        <mxCell id="AIsaKvMPGWrzaPVtFiuC-51" value="return" style="html=1;verticalAlign=bottom;endArrow=open;dashed=1;endSize=8;labelBackgroundColor=none;fontFamily=Verdana;fontSize=12;edgeStyle=elbowEdgeStyle;elbow=vertical;" parent="1" edge="1">
          <mxGeometry relative="1" as="geometry">
            <mxPoint x="260" y="1200" as="targetPoint" />
            <Array as="points">
              <mxPoint x="655" y="1200" />
            </Array>
            <mxPoint x="660" y="1200" as="sourcePoint" />
          </mxGeometry>
        </mxCell>
        <mxCell id="AIsaKvMPGWrzaPVtFiuC-53" value="return" style="html=1;verticalAlign=bottom;endArrow=open;dashed=1;endSize=8;labelBackgroundColor=none;fontFamily=Verdana;fontSize=12;edgeStyle=elbowEdgeStyle;elbow=vertical;" parent="1" edge="1">
          <mxGeometry relative="1" as="geometry">
            <mxPoint x="80" y="1324" as="targetPoint" />
            <Array as="points">
              <mxPoint x="475" y="1324" />
            </Array>
            <mxPoint x="240" y="1320" as="sourcePoint" />
          </mxGeometry>
        </mxCell>
        <mxCell id="AIsaKvMPGWrzaPVtFiuC-57" value="礼包ID" style="html=1;verticalAlign=bottom;endArrow=block;labelBackgroundColor=none;fontFamily=Verdana;fontSize=12;edgeStyle=elbowEdgeStyle;elbow=vertical;" parent="1" target="AIsaKvMPGWrzaPVtFiuC-3" edge="1">
          <mxGeometry x="0.15" y="10" relative="1" as="geometry">
            <mxPoint x="260" y="1420" as="sourcePoint" />
            <mxPoint x="660" y="1420" as="targetPoint" />
            <mxPoint as="offset" />
          </mxGeometry>
        </mxCell>
        <mxCell id="AIsaKvMPGWrzaPVtFiuC-59" value="1、判断礼包是否领取过；&lt;br&gt;&lt;div style=&quot;&quot;&gt;&lt;span style=&quot;background-color: initial;&quot;&gt;2、如果没有领取过，进行消耗；&lt;/span&gt;&lt;/div&gt;&lt;div style=&quot;&quot;&gt;&lt;span style=&quot;background-color: initial;&quot;&gt;3、将页签ID、礼包ID的映射插入Map中&lt;/span&gt;&lt;/div&gt;&lt;div style=&quot;&quot;&gt;&lt;span style=&quot;background-color: initial;&quot;&gt;4、判断该页签礼包是否领取完毕&lt;/span&gt;&lt;/div&gt;&lt;div style=&quot;&quot;&gt;&lt;span style=&quot;background-color: initial;&quot;&gt;5、判断整个活动的礼包是否领取完毕&lt;/span&gt;&lt;/div&gt;&lt;div style=&quot;&quot;&gt;&lt;span style=&quot;background-color: initial;&quot;&gt;5、播放公告；&lt;/span&gt;&lt;/div&gt;" style="text;html=1;align=left;verticalAlign=middle;resizable=0;points=[];autosize=1;strokeColor=none;fillColor=none;" parent="1" vertex="1">
          <mxGeometry x="1000" y="1405" width="230" height="100" as="geometry" />
        </mxCell>
        <mxCell id="AIsaKvMPGWrzaPVtFiuC-64" value="疑难点：&lt;br&gt;1、中途策划增、删、该配置怎么办？-检查NewDraw一下&lt;br&gt;2、在disCondition为限制范围类型的时候，&lt;br&gt;如果超过范围，但是礼包并未领取完毕，怎么判断整个活动的&lt;br&gt;礼包是否领取完毕&lt;br&gt;3、还是2的条件前提下，如果某个页签X达到显示条件，但是因为前&lt;br&gt;四个页签都还没有领取完毕，显示不了页签X；过了一段时间后，X不满足&lt;br&gt;显示条件了，那么X就永远显示不了。" style="text;html=1;align=left;verticalAlign=middle;resizable=0;points=[];autosize=1;strokeColor=none;fillColor=none;" parent="1" vertex="1">
          <mxGeometry x="1000" y="1505" width="410" height="130" as="geometry" />
        </mxCell>
        <mxCell id="AIsaKvMPGWrzaPVtFiuC-46" value="return Map映射" style="html=1;verticalAlign=bottom;endArrow=open;dashed=1;endSize=8;labelBackgroundColor=none;fontFamily=Verdana;fontSize=12;edgeStyle=elbowEdgeStyle;elbow=vertical;" parent="1" edge="1">
          <mxGeometry x="0.0014" relative="1" as="geometry">
            <mxPoint x="260" y="1050" as="targetPoint" />
            <Array as="points">
              <mxPoint x="655" y="1050" />
            </Array>
            <mxPoint x="955" y="1050" as="sourcePoint" />
            <mxPoint as="offset" />
          </mxGeometry>
        </mxCell>
        <mxCell id="AIsaKvMPGWrzaPVtFiuC-67" value="return&amp;nbsp;" style="html=1;verticalAlign=bottom;endArrow=open;dashed=1;endSize=8;labelBackgroundColor=none;fontFamily=Verdana;fontSize=12;edgeStyle=elbowEdgeStyle;elbow=vertical;" parent="1" edge="1">
          <mxGeometry x="0.0014" relative="1" as="geometry">
            <mxPoint x="950" y="1010" as="targetPoint" />
            <Array as="points">
              <mxPoint x="790" y="1010" />
              <mxPoint x="745" y="1010" />
            </Array>
            <mxPoint x="680" y="1010" as="sourcePoint" />
            <mxPoint as="offset" />
          </mxGeometry>
        </mxCell>
        <mxCell id="AIsaKvMPGWrzaPVtFiuC-68" value="前四个符合disCondition并且&lt;br&gt;礼包未完全领取的页签ID" style="html=1;verticalAlign=bottom;endArrow=block;labelBackgroundColor=none;fontFamily=Verdana;fontSize=12;edgeStyle=elbowEdgeStyle;elbow=vertical;" parent="1" edge="1">
          <mxGeometry x="0.0035" relative="1" as="geometry">
            <mxPoint x="960" y="990" as="sourcePoint" />
            <mxPoint x="675" y="990" as="targetPoint" />
            <Array as="points">
              <mxPoint x="675.0699999999999" y="990" />
            </Array>
            <mxPoint as="offset" />
          </mxGeometry>
        </mxCell>
        <mxCell id="AIsaKvMPGWrzaPVtFiuC-60" value="return 最新的前四页签Map映射（不一定有4个）" style="html=1;verticalAlign=bottom;endArrow=open;dashed=1;endSize=8;labelBackgroundColor=none;fontFamily=Verdana;fontSize=12;edgeStyle=elbowEdgeStyle;elbow=vertical;" parent="1" edge="1">
          <mxGeometry relative="1" as="geometry">
            <mxPoint x="260" y="1534" as="targetPoint" />
            <Array as="points">
              <mxPoint x="1205" y="1534" />
            </Array>
            <mxPoint x="970" y="1530" as="sourcePoint" />
          </mxGeometry>
        </mxCell>
        <mxCell id="AIsaKvMPGWrzaPVtFiuC-70" value="return&amp;nbsp;" style="html=1;verticalAlign=bottom;endArrow=open;dashed=1;endSize=8;labelBackgroundColor=none;fontFamily=Verdana;fontSize=12;edgeStyle=elbowEdgeStyle;elbow=vertical;" parent="1" edge="1">
          <mxGeometry x="0.0014" relative="1" as="geometry">
            <mxPoint x="950" y="1480" as="targetPoint" />
            <Array as="points">
              <mxPoint x="790" y="1480" />
              <mxPoint x="745" y="1480" />
            </Array>
            <mxPoint x="680" y="1480" as="sourcePoint" />
            <mxPoint as="offset" />
          </mxGeometry>
        </mxCell>
        <mxCell id="AIsaKvMPGWrzaPVtFiuC-71" value="前四个符合disCondition并且&lt;br&gt;礼包未完全领取的页签ID" style="html=1;verticalAlign=bottom;endArrow=block;labelBackgroundColor=none;fontFamily=Verdana;fontSize=12;edgeStyle=elbowEdgeStyle;elbow=vertical;" parent="1" edge="1">
          <mxGeometry x="0.0035" relative="1" as="geometry">
            <mxPoint x="960" y="1460" as="sourcePoint" />
            <mxPoint x="675" y="1460" as="targetPoint" />
            <Array as="points">
              <mxPoint x="675.0699999999999" y="1460" />
            </Array>
            <mxPoint as="offset" />
          </mxGeometry>
        </mxCell>
        <mxCell id="AIsaKvMPGWrzaPVtFiuC-72" value="针对第二个问题，只要前四页签为空，则说明活动领取完毕" style="text;html=1;align=center;verticalAlign=middle;resizable=0;points=[];autosize=1;strokeColor=none;fillColor=none;" parent="1" vertex="1">
          <mxGeometry x="1000" y="1640" width="340" height="30" as="geometry" />
        </mxCell>
        <mxCell id="AIsaKvMPGWrzaPVtFiuC-73" value="针对第三个问题，策划说显示不了就显示不了，&lt;br&gt;并保证不会配置这种有上限的；&lt;br&gt;如果配置的是开服天数的话，为无偏移模式" style="text;html=1;align=left;verticalAlign=middle;resizable=0;points=[];autosize=1;strokeColor=none;fillColor=none;" parent="1" vertex="1">
          <mxGeometry x="1015" y="1670" width="280" height="60" as="geometry" />
        </mxCell>
        <mxCell id="AIsaKvMPGWrzaPVtFiuC-74" value="&amp;nbsp;black-marketeers" style="text;html=1;align=center;verticalAlign=middle;resizable=0;points=[];autosize=1;strokeColor=none;fillColor=none;" parent="1" vertex="1">
          <mxGeometry x="1000" y="1775" width="120" height="30" as="geometry" />
        </mxCell>
        <mxCell id="91X5R--ChuRU9in8zY7s-1" value="前端" style="shape=umlLifeline;perimeter=lifelinePerimeter;whiteSpace=wrap;html=1;container=1;collapsible=0;recursiveResize=0;outlineConnect=0;rounded=1;shadow=0;comic=0;labelBackgroundColor=none;strokeWidth=1;fontFamily=Verdana;fontSize=12;align=center;" parent="1" vertex="1">
          <mxGeometry x="350" y="2610" width="100" height="1210" as="geometry" />
        </mxCell>
        <mxCell id="91X5R--ChuRU9in8zY7s-2" value="" style="html=1;points=[];perimeter=orthogonalPerimeter;rounded=0;shadow=0;comic=0;labelBackgroundColor=none;strokeWidth=1;fontFamily=Verdana;fontSize=12;align=center;" parent="91X5R--ChuRU9in8zY7s-1" vertex="1">
          <mxGeometry x="45" y="100" width="10" height="400" as="geometry" />
        </mxCell>
        <mxCell id="91X5R--ChuRU9in8zY7s-3" value="根据返回Map将领取的礼包价格按钮变成印章" style="html=1;verticalAlign=bottom;endArrow=block;labelBackgroundColor=none;fontFamily=Verdana;fontSize=12;elbow=vertical;edgeStyle=orthogonalEdgeStyle;curved=1;exitX=1.066;exitY=0.713;exitPerimeter=0;" parent="91X5R--ChuRU9in8zY7s-1" edge="1">
          <mxGeometry x="0.0039" relative="1" as="geometry">
            <mxPoint x="68.16000000000008" y="410.0100000000002" as="sourcePoint" />
            <mxPoint x="62.5" y="449.0999999999999" as="targetPoint" />
            <Array as="points">
              <mxPoint x="117.5" y="410.0999999999999" />
              <mxPoint x="117.5" y="449.0999999999999" />
            </Array>
            <mxPoint as="offset" />
          </mxGeometry>
        </mxCell>
        <mxCell id="91X5R--ChuRU9in8zY7s-4" value="" style="html=1;points=[];perimeter=orthogonalPerimeter;rounded=0;shadow=0;comic=0;labelBackgroundColor=none;strokeWidth=1;fontFamily=Verdana;fontSize=12;align=center;" parent="91X5R--ChuRU9in8zY7s-1" vertex="1">
          <mxGeometry x="45" y="570" width="10" height="340" as="geometry" />
        </mxCell>
        <mxCell id="91X5R--ChuRU9in8zY7s-5" value="购买任意礼包" style="html=1;verticalAlign=bottom;endArrow=block;entryX=0;entryY=0;labelBackgroundColor=none;fontFamily=Verdana;fontSize=12;edgeStyle=elbowEdgeStyle;elbow=vertical;" parent="91X5R--ChuRU9in8zY7s-1" edge="1">
          <mxGeometry relative="1" as="geometry">
            <mxPoint x="-125" y="580" as="sourcePoint" />
            <mxPoint x="45" y="580.0000000000032" as="targetPoint" />
          </mxGeometry>
        </mxCell>
        <mxCell id="91X5R--ChuRU9in8zY7s-6" value="更新页签or根据返回Map将领取的礼包价格按钮变成印章" style="html=1;verticalAlign=bottom;endArrow=block;labelBackgroundColor=none;fontFamily=Verdana;fontSize=12;elbow=vertical;edgeStyle=orthogonalEdgeStyle;curved=1;exitX=1.066;exitY=0.713;exitPerimeter=0;" parent="91X5R--ChuRU9in8zY7s-1" edge="1">
          <mxGeometry x="0.0039" relative="1" as="geometry">
            <mxPoint x="60.66000000000008" y="740.0100000000002" as="sourcePoint" />
            <mxPoint x="55" y="779.0999999999999" as="targetPoint" />
            <Array as="points">
              <mxPoint x="110" y="740.0999999999999" />
              <mxPoint x="110" y="779.0999999999999" />
            </Array>
            <mxPoint as="offset" />
          </mxGeometry>
        </mxCell>
        <mxCell id="91X5R--ChuRU9in8zY7s-7" value="return 更新礼包or页签" style="html=1;verticalAlign=bottom;endArrow=open;dashed=1;endSize=8;labelBackgroundColor=none;fontFamily=Verdana;fontSize=12;edgeStyle=elbowEdgeStyle;elbow=vertical;" parent="91X5R--ChuRU9in8zY7s-1" edge="1">
          <mxGeometry relative="1" as="geometry">
            <mxPoint x="-120" y="794" as="targetPoint" />
            <Array as="points">
              <mxPoint x="275" y="794" />
            </Array>
            <mxPoint x="40" y="790" as="sourcePoint" />
          </mxGeometry>
        </mxCell>
        <mxCell id="91X5R--ChuRU9in8zY7s-8" value="后端" style="shape=umlLifeline;perimeter=lifelinePerimeter;whiteSpace=wrap;html=1;container=1;collapsible=0;recursiveResize=0;outlineConnect=0;rounded=1;shadow=0;comic=0;labelBackgroundColor=none;strokeWidth=1;fontFamily=Verdana;fontSize=12;align=center;" parent="1" vertex="1">
          <mxGeometry x="1065" y="2620" width="100" height="1260" as="geometry" />
        </mxCell>
        <mxCell id="91X5R--ChuRU9in8zY7s-9" value="" style="html=1;points=[];perimeter=orthogonalPerimeter;rounded=0;shadow=0;comic=0;labelBackgroundColor=none;strokeWidth=1;fontFamily=Verdana;fontSize=12;align=center;" parent="91X5R--ChuRU9in8zY7s-8" vertex="1">
          <mxGeometry x="45" y="70" width="10" height="200" as="geometry" />
        </mxCell>
        <mxCell id="91X5R--ChuRU9in8zY7s-10" value="" style="html=1;points=[];perimeter=orthogonalPerimeter;rounded=0;shadow=0;comic=0;labelBackgroundColor=none;strokeWidth=1;fontFamily=Verdana;fontSize=12;align=center;" parent="91X5R--ChuRU9in8zY7s-8" vertex="1">
          <mxGeometry x="45" y="570" width="10" height="200" as="geometry" />
        </mxCell>
        <mxCell id="91X5R--ChuRU9in8zY7s-11" value="玩家" style="shape=umlLifeline;perimeter=lifelinePerimeter;whiteSpace=wrap;html=1;container=1;collapsible=0;recursiveResize=0;outlineConnect=0;rounded=1;shadow=0;comic=0;labelBackgroundColor=none;strokeWidth=1;fontFamily=Verdana;fontSize=12;align=center;" parent="1" vertex="1">
          <mxGeometry x="170" y="2610" width="100" height="1180" as="geometry" />
        </mxCell>
        <mxCell id="91X5R--ChuRU9in8zY7s-12" value="" style="html=1;points=[];perimeter=orthogonalPerimeter;rounded=0;shadow=0;comic=0;labelBackgroundColor=none;strokeWidth=1;fontFamily=Verdana;fontSize=12;align=center;" parent="91X5R--ChuRU9in8zY7s-11" vertex="1">
          <mxGeometry x="45" y="100" width="10" height="970" as="geometry" />
        </mxCell>
        <mxCell id="91X5R--ChuRU9in8zY7s-13" value="点击进入功能页面" style="html=1;verticalAlign=bottom;endArrow=block;entryX=0;entryY=0;labelBackgroundColor=none;fontFamily=Verdana;fontSize=12;edgeStyle=elbowEdgeStyle;elbow=vertical;" parent="1" source="91X5R--ChuRU9in8zY7s-12" target="91X5R--ChuRU9in8zY7s-2" edge="1">
          <mxGeometry relative="1" as="geometry">
            <mxPoint x="380" y="2730" as="sourcePoint" />
          </mxGeometry>
        </mxCell>
        <mxCell id="91X5R--ChuRU9in8zY7s-14" value="这里的reqInfo不能通过conditionFailed来进行判断，而是要先搞清楚taskRecordMap里面存储的是什么内容，根据这个去构造返回。&lt;br&gt;&lt;br&gt;考虑直升卡的影响&lt;br&gt;&lt;br&gt;最后看需不需要通过conditionFailed去进行判断&lt;br&gt;&lt;br&gt;我们初步估算，taskRecordMap仅仅存储的是" style="shape=note;whiteSpace=wrap;html=1;size=14;verticalAlign=top;align=left;spacingTop=-6;rounded=0;shadow=0;comic=0;labelBackgroundColor=none;strokeWidth=1;fontFamily=Verdana;fontSize=12" parent="1" vertex="1">
          <mxGeometry x="1155" y="2700" width="605" height="140" as="geometry" />
        </mxCell>
        <mxCell id="91X5R--ChuRU9in8zY7s-15" value="配置" style="shape=umlLifeline;perimeter=lifelinePerimeter;whiteSpace=wrap;html=1;container=1;collapsible=0;recursiveResize=0;outlineConnect=0;rounded=1;shadow=0;comic=0;labelBackgroundColor=none;strokeWidth=1;fontFamily=Verdana;fontSize=12;align=center;" parent="1" vertex="1">
          <mxGeometry x="770" y="2610" width="100" height="1230" as="geometry" />
        </mxCell>
        <mxCell id="91X5R--ChuRU9in8zY7s-16" value="" style="html=1;points=[];perimeter=orthogonalPerimeter;rounded=0;shadow=0;comic=0;labelBackgroundColor=none;strokeWidth=1;fontFamily=Verdana;fontSize=12;align=center;" parent="91X5R--ChuRU9in8zY7s-15" vertex="1">
          <mxGeometry x="45" y="230" width="10" height="200" as="geometry" />
        </mxCell>
        <mxCell id="91X5R--ChuRU9in8zY7s-17" value="" style="html=1;points=[];perimeter=orthogonalPerimeter;rounded=0;shadow=0;comic=0;labelBackgroundColor=none;strokeWidth=1;fontFamily=Verdana;fontSize=12;align=center;" parent="91X5R--ChuRU9in8zY7s-15" vertex="1">
          <mxGeometry x="45" y="130" width="10" height="50" as="geometry" />
        </mxCell>
        <mxCell id="91X5R--ChuRU9in8zY7s-18" value="" style="html=1;points=[];perimeter=orthogonalPerimeter;rounded=0;shadow=0;comic=0;labelBackgroundColor=none;strokeWidth=1;fontFamily=Verdana;fontSize=12;align=center;" parent="91X5R--ChuRU9in8zY7s-15" vertex="1">
          <mxGeometry x="45" y="600" width="10" height="50" as="geometry" />
        </mxCell>
        <mxCell id="91X5R--ChuRU9in8zY7s-19" value="发送reqInfo请求" style="html=1;verticalAlign=bottom;endArrow=block;labelBackgroundColor=none;fontFamily=Verdana;fontSize=12;edgeStyle=elbowEdgeStyle;elbow=vertical;" parent="1" edge="1">
          <mxGeometry relative="1" as="geometry">
            <mxPoint x="410" y="2720" as="sourcePoint" />
            <mxPoint x="1110" y="2720" as="targetPoint" />
          </mxGeometry>
        </mxCell>
        <mxCell id="91X5R--ChuRU9in8zY7s-20" value="活动是否开启&amp;amp;存在为领取礼包的页签" style="shape=note;whiteSpace=wrap;html=1;size=14;verticalAlign=top;align=left;spacingTop=-6;rounded=0;shadow=0;comic=0;labelBackgroundColor=none;strokeWidth=1;fontFamily=Verdana;fontSize=12" parent="1" vertex="1">
          <mxGeometry x="180" y="2560" width="260" height="35" as="geometry" />
        </mxCell>
        <mxCell id="91X5R--ChuRU9in8zY7s-21" value="根据活动ID和页签ID，在menulayer获取对应的页签名称；" style="html=1;verticalAlign=bottom;endArrow=block;labelBackgroundColor=none;fontFamily=Verdana;fontSize=12;edgeStyle=elbowEdgeStyle;elbow=vertical;" parent="1" edge="1">
          <mxGeometry relative="1" as="geometry">
            <mxPoint x="410" y="2860" as="sourcePoint" />
            <mxPoint x="810" y="2860" as="targetPoint" />
            <mxPoint as="offset" />
          </mxGeometry>
        </mxCell>
        <mxCell id="91X5R--ChuRU9in8zY7s-22" value="return" style="html=1;verticalAlign=bottom;endArrow=open;dashed=1;endSize=8;labelBackgroundColor=none;fontFamily=Verdana;fontSize=12;edgeStyle=elbowEdgeStyle;elbow=vertical;" parent="1" edge="1">
          <mxGeometry relative="1" as="geometry">
            <mxPoint x="410" y="2880" as="targetPoint" />
            <Array as="points">
              <mxPoint x="805" y="2880" />
            </Array>
            <mxPoint x="810" y="2880" as="sourcePoint" />
          </mxGeometry>
        </mxCell>
        <mxCell id="91X5R--ChuRU9in8zY7s-23" value="根据活动ID和礼包ID，往fightstringname获取对应的礼包名称；" style="html=1;verticalAlign=bottom;endArrow=block;labelBackgroundColor=none;fontFamily=Verdana;fontSize=12;edgeStyle=elbowEdgeStyle;elbow=vertical;" parent="1" edge="1">
          <mxGeometry x="0.15" y="10" relative="1" as="geometry">
            <mxPoint x="410" y="2940" as="sourcePoint" />
            <mxPoint x="810" y="2940" as="targetPoint" />
            <mxPoint as="offset" />
          </mxGeometry>
        </mxCell>
        <mxCell id="91X5R--ChuRU9in8zY7s-24" value="return" style="html=1;verticalAlign=bottom;endArrow=open;dashed=1;endSize=8;labelBackgroundColor=none;fontFamily=Verdana;fontSize=12;edgeStyle=elbowEdgeStyle;elbow=vertical;" parent="1" edge="1">
          <mxGeometry relative="1" as="geometry">
            <mxPoint x="410" y="2970" as="targetPoint" />
            <Array as="points">
              <mxPoint x="805" y="2970" />
            </Array>
            <mxPoint x="810" y="2970" as="sourcePoint" />
          </mxGeometry>
        </mxCell>
        <mxCell id="91X5R--ChuRU9in8zY7s-25" value="return" style="html=1;verticalAlign=bottom;endArrow=open;dashed=1;endSize=8;labelBackgroundColor=none;fontFamily=Verdana;fontSize=12;edgeStyle=elbowEdgeStyle;elbow=vertical;" parent="1" edge="1">
          <mxGeometry relative="1" as="geometry">
            <mxPoint x="230" y="3094" as="targetPoint" />
            <Array as="points">
              <mxPoint x="625" y="3094" />
            </Array>
            <mxPoint x="390" y="3090" as="sourcePoint" />
          </mxGeometry>
        </mxCell>
        <mxCell id="91X5R--ChuRU9in8zY7s-26" value="礼包ID" style="html=1;verticalAlign=bottom;endArrow=block;labelBackgroundColor=none;fontFamily=Verdana;fontSize=12;edgeStyle=elbowEdgeStyle;elbow=vertical;" parent="1" target="91X5R--ChuRU9in8zY7s-8" edge="1">
          <mxGeometry x="0.15" y="10" relative="1" as="geometry">
            <mxPoint x="410" y="3190" as="sourcePoint" />
            <mxPoint x="810" y="3190" as="targetPoint" />
            <mxPoint as="offset" />
          </mxGeometry>
        </mxCell>
        <mxCell id="91X5R--ChuRU9in8zY7s-27" value="1、判断礼包是否领取过；&lt;br&gt;&lt;div style=&quot;&quot;&gt;&lt;span style=&quot;background-color: initial;&quot;&gt;2、如果没有领取过，进行消耗；&lt;/span&gt;&lt;/div&gt;&lt;div style=&quot;&quot;&gt;&lt;span style=&quot;background-color: initial;&quot;&gt;3、将页签ID、礼包ID的映射插入Map中&lt;/span&gt;&lt;/div&gt;&lt;div style=&quot;&quot;&gt;&lt;span style=&quot;background-color: initial;&quot;&gt;4、判断该页签礼包是否领取完毕&lt;/span&gt;&lt;/div&gt;&lt;div style=&quot;&quot;&gt;&lt;span style=&quot;background-color: initial;&quot;&gt;5、判断整个活动的礼包是否领取完毕&lt;/span&gt;&lt;/div&gt;&lt;div style=&quot;&quot;&gt;&lt;span style=&quot;background-color: initial;&quot;&gt;5、播放公告；&lt;/span&gt;&lt;/div&gt;" style="text;html=1;align=left;verticalAlign=middle;resizable=0;points=[];autosize=1;strokeColor=none;fillColor=none;" parent="1" vertex="1">
          <mxGeometry x="1150" y="3175" width="230" height="100" as="geometry" />
        </mxCell>
        <mxCell id="91X5R--ChuRU9in8zY7s-28" value="疑难点：&lt;br&gt;1、中途策划增、删、该配置怎么办？-检查NewDraw一下&lt;br&gt;2、在disCondition为限制范围类型的时候，&lt;br&gt;如果超过范围，但是礼包并未领取完毕，怎么判断整个活动的&lt;br&gt;礼包是否领取完毕&lt;br&gt;3、还是2的条件前提下，如果某个页签X达到显示条件，但是因为前&lt;br&gt;四个页签都还没有领取完毕，显示不了页签X；过了一段时间后，X不满足&lt;br&gt;显示条件了，那么X就永远显示不了。" style="text;html=1;align=left;verticalAlign=middle;resizable=0;points=[];autosize=1;strokeColor=none;fillColor=none;" parent="1" vertex="1">
          <mxGeometry x="1150" y="3275" width="410" height="130" as="geometry" />
        </mxCell>
        <mxCell id="91X5R--ChuRU9in8zY7s-29" value="return Map映射" style="html=1;verticalAlign=bottom;endArrow=open;dashed=1;endSize=8;labelBackgroundColor=none;fontFamily=Verdana;fontSize=12;edgeStyle=elbowEdgeStyle;elbow=vertical;" parent="1" edge="1">
          <mxGeometry x="0.0014" relative="1" as="geometry">
            <mxPoint x="410" y="2820" as="targetPoint" />
            <Array as="points">
              <mxPoint x="805" y="2820" />
            </Array>
            <mxPoint x="1105" y="2820" as="sourcePoint" />
            <mxPoint as="offset" />
          </mxGeometry>
        </mxCell>
        <mxCell id="91X5R--ChuRU9in8zY7s-30" value="return&amp;nbsp;" style="html=1;verticalAlign=bottom;endArrow=open;dashed=1;endSize=8;labelBackgroundColor=none;fontFamily=Verdana;fontSize=12;edgeStyle=elbowEdgeStyle;elbow=vertical;" parent="1" edge="1">
          <mxGeometry x="0.0014" relative="1" as="geometry">
            <mxPoint x="1100" y="2780" as="targetPoint" />
            <Array as="points">
              <mxPoint x="940" y="2780" />
              <mxPoint x="895" y="2780" />
            </Array>
            <mxPoint x="830" y="2780" as="sourcePoint" />
            <mxPoint as="offset" />
          </mxGeometry>
        </mxCell>
        <mxCell id="91X5R--ChuRU9in8zY7s-31" value="1" style="html=1;verticalAlign=bottom;endArrow=block;labelBackgroundColor=none;fontFamily=Verdana;fontSize=12;edgeStyle=elbowEdgeStyle;elbow=vertical;" parent="1" edge="1">
          <mxGeometry x="0.0035" relative="1" as="geometry">
            <mxPoint x="1110" y="2760" as="sourcePoint" />
            <mxPoint x="825" y="2760" as="targetPoint" />
            <Array as="points">
              <mxPoint x="825.0699999999999" y="2760" />
            </Array>
            <mxPoint as="offset" />
          </mxGeometry>
        </mxCell>
        <mxCell id="91X5R--ChuRU9in8zY7s-32" value="return 最新的前四页签Map映射（不一定有4个）" style="html=1;verticalAlign=bottom;endArrow=open;dashed=1;endSize=8;labelBackgroundColor=none;fontFamily=Verdana;fontSize=12;edgeStyle=elbowEdgeStyle;elbow=vertical;" parent="1" edge="1">
          <mxGeometry relative="1" as="geometry">
            <mxPoint x="410" y="3304" as="targetPoint" />
            <Array as="points">
              <mxPoint x="1355" y="3304" />
            </Array>
            <mxPoint x="1120" y="3300" as="sourcePoint" />
          </mxGeometry>
        </mxCell>
        <mxCell id="91X5R--ChuRU9in8zY7s-33" value="return&amp;nbsp;" style="html=1;verticalAlign=bottom;endArrow=open;dashed=1;endSize=8;labelBackgroundColor=none;fontFamily=Verdana;fontSize=12;edgeStyle=elbowEdgeStyle;elbow=vertical;" parent="1" edge="1">
          <mxGeometry x="0.0014" relative="1" as="geometry">
            <mxPoint x="1100" y="3250" as="targetPoint" />
            <Array as="points">
              <mxPoint x="940" y="3250" />
              <mxPoint x="895" y="3250" />
            </Array>
            <mxPoint x="830" y="3250" as="sourcePoint" />
            <mxPoint as="offset" />
          </mxGeometry>
        </mxCell>
        <mxCell id="91X5R--ChuRU9in8zY7s-34" value="前四个符合disCondition并且&lt;br&gt;礼包未完全领取的页签ID" style="html=1;verticalAlign=bottom;endArrow=block;labelBackgroundColor=none;fontFamily=Verdana;fontSize=12;edgeStyle=elbowEdgeStyle;elbow=vertical;" parent="1" edge="1">
          <mxGeometry x="0.0035" relative="1" as="geometry">
            <mxPoint x="1110" y="3230" as="sourcePoint" />
            <mxPoint x="825" y="3230" as="targetPoint" />
            <Array as="points">
              <mxPoint x="825.0699999999999" y="3230" />
            </Array>
            <mxPoint as="offset" />
          </mxGeometry>
        </mxCell>
        <mxCell id="91X5R--ChuRU9in8zY7s-35" value="针对第二个问题，只要前四页签为空，则说明活动领取完毕" style="text;html=1;align=center;verticalAlign=middle;resizable=0;points=[];autosize=1;strokeColor=none;fillColor=none;" parent="1" vertex="1">
          <mxGeometry x="1150" y="3410" width="340" height="30" as="geometry" />
        </mxCell>
        <mxCell id="91X5R--ChuRU9in8zY7s-36" value="针对第三个问题，策划说显示不了就显示不了，&lt;br&gt;并保证不会配置这种有上限的；&lt;br&gt;如果配置的是开服天数的话，为无偏移模式" style="text;html=1;align=left;verticalAlign=middle;resizable=0;points=[];autosize=1;strokeColor=none;fillColor=none;" parent="1" vertex="1">
          <mxGeometry x="1165" y="3440" width="280" height="60" as="geometry" />
        </mxCell>
        <mxCell id="91X5R--ChuRU9in8zY7s-37" value="&amp;nbsp;black-marketeers" style="text;html=1;align=center;verticalAlign=middle;resizable=0;points=[];autosize=1;strokeColor=none;fillColor=none;" parent="1" vertex="1">
          <mxGeometry x="1150" y="3545" width="120" height="30" as="geometry" />
        </mxCell>
        <mxCell id="pw3Muvpr6j79MPZT2I3B-4" value="" style="endArrow=classic;html=1;rounded=0;" parent="1" edge="1">
          <mxGeometry width="50" height="50" relative="1" as="geometry">
            <mxPoint x="520" y="4320" as="sourcePoint" />
            <mxPoint x="1160" y="4320" as="targetPoint" />
          </mxGeometry>
        </mxCell>
        <mxCell id="pw3Muvpr6j79MPZT2I3B-5" value="" style="group" parent="1" vertex="1" connectable="0">
          <mxGeometry x="560" y="4200" width="240" height="80" as="geometry" />
        </mxCell>
        <mxCell id="pw3Muvpr6j79MPZT2I3B-1" value="data" style="ellipse;whiteSpace=wrap;html=1;aspect=fixed;" parent="pw3Muvpr6j79MPZT2I3B-5" vertex="1">
          <mxGeometry x="80" width="80" height="80" as="geometry" />
        </mxCell>
        <mxCell id="pw3Muvpr6j79MPZT2I3B-2" value="" style="shape=flexArrow;endArrow=classic;html=1;rounded=0;" parent="pw3Muvpr6j79MPZT2I3B-5" edge="1">
          <mxGeometry width="50" height="50" relative="1" as="geometry">
            <mxPoint y="40" as="sourcePoint" />
            <mxPoint x="70" y="40" as="targetPoint" />
          </mxGeometry>
        </mxCell>
        <mxCell id="pw3Muvpr6j79MPZT2I3B-3" value="" style="shape=flexArrow;endArrow=classic;html=1;rounded=0;" parent="pw3Muvpr6j79MPZT2I3B-5" edge="1">
          <mxGeometry width="50" height="50" relative="1" as="geometry">
            <mxPoint x="170" y="39.5" as="sourcePoint" />
            <mxPoint x="240" y="39.5" as="targetPoint" />
          </mxGeometry>
        </mxCell>
        <mxCell id="pw3Muvpr6j79MPZT2I3B-6" value="t1" style="text;html=1;align=center;verticalAlign=middle;resizable=0;points=[];autosize=1;strokeColor=none;fillColor=none;" parent="1" vertex="1">
          <mxGeometry x="665" y="4325" width="30" height="30" as="geometry" />
        </mxCell>
        <mxCell id="pw3Muvpr6j79MPZT2I3B-7" value="" style="group" parent="1" vertex="1" connectable="0">
          <mxGeometry x="880" y="4200" width="240" height="80" as="geometry" />
        </mxCell>
        <mxCell id="pw3Muvpr6j79MPZT2I3B-8" value="data" style="ellipse;whiteSpace=wrap;html=1;aspect=fixed;" parent="pw3Muvpr6j79MPZT2I3B-7" vertex="1">
          <mxGeometry x="80" width="80" height="80" as="geometry" />
        </mxCell>
        <mxCell id="pw3Muvpr6j79MPZT2I3B-9" value="" style="shape=flexArrow;endArrow=classic;html=1;rounded=0;" parent="pw3Muvpr6j79MPZT2I3B-7" edge="1">
          <mxGeometry width="50" height="50" relative="1" as="geometry">
            <mxPoint y="40" as="sourcePoint" />
            <mxPoint x="70" y="40" as="targetPoint" />
          </mxGeometry>
        </mxCell>
        <mxCell id="pw3Muvpr6j79MPZT2I3B-10" value="" style="shape=flexArrow;endArrow=classic;html=1;rounded=0;" parent="pw3Muvpr6j79MPZT2I3B-7" edge="1">
          <mxGeometry width="50" height="50" relative="1" as="geometry">
            <mxPoint x="170" y="39.5" as="sourcePoint" />
            <mxPoint x="240" y="39.5" as="targetPoint" />
          </mxGeometry>
        </mxCell>
        <mxCell id="pw3Muvpr6j79MPZT2I3B-11" value="t2" style="text;html=1;align=center;verticalAlign=middle;resizable=0;points=[];autosize=1;strokeColor=none;fillColor=none;" parent="1" vertex="1">
          <mxGeometry x="985" y="4325" width="30" height="30" as="geometry" />
        </mxCell>
        <mxCell id="-S-B5UiOrlPWXrYELMPt-13" value="" style="group" vertex="1" connectable="0" parent="1">
          <mxGeometry x="360" y="4520" width="155" height="170" as="geometry" />
        </mxCell>
        <mxCell id="-S-B5UiOrlPWXrYELMPt-1" value="data1" style="ellipse;whiteSpace=wrap;html=1;aspect=fixed;" vertex="1" parent="-S-B5UiOrlPWXrYELMPt-13">
          <mxGeometry width="50" height="50" as="geometry" />
        </mxCell>
        <mxCell id="-S-B5UiOrlPWXrYELMPt-2" value="data3" style="ellipse;whiteSpace=wrap;html=1;aspect=fixed;" vertex="1" parent="-S-B5UiOrlPWXrYELMPt-13">
          <mxGeometry x="30" y="120" width="50" height="50" as="geometry" />
        </mxCell>
        <mxCell id="-S-B5UiOrlPWXrYELMPt-3" value="data2" style="ellipse;whiteSpace=wrap;html=1;aspect=fixed;" vertex="1" parent="-S-B5UiOrlPWXrYELMPt-13">
          <mxGeometry x="105" y="40" width="50" height="50" as="geometry" />
        </mxCell>
        <mxCell id="-S-B5UiOrlPWXrYELMPt-9" value="" style="shape=flexArrow;endArrow=classic;html=1;rounded=0;entryX=-0.14;entryY=0.48;entryDx=0;entryDy=0;entryPerimeter=0;" edge="1" parent="-S-B5UiOrlPWXrYELMPt-13" target="-S-B5UiOrlPWXrYELMPt-3">
          <mxGeometry width="50" height="50" relative="1" as="geometry">
            <mxPoint x="50" y="40" as="sourcePoint" />
            <mxPoint x="100" y="-10" as="targetPoint" />
          </mxGeometry>
        </mxCell>
        <mxCell id="-S-B5UiOrlPWXrYELMPt-10" value="" style="shape=flexArrow;endArrow=classic;html=1;rounded=0;endWidth=17;endSize=6.51;" edge="1" parent="-S-B5UiOrlPWXrYELMPt-13" target="-S-B5UiOrlPWXrYELMPt-2">
          <mxGeometry width="50" height="50" relative="1" as="geometry">
            <mxPoint x="120" y="90" as="sourcePoint" />
            <mxPoint x="170" y="50" as="targetPoint" />
          </mxGeometry>
        </mxCell>
        <mxCell id="-S-B5UiOrlPWXrYELMPt-14" value="" style="group" vertex="1" connectable="0" parent="1">
          <mxGeometry x="741.1306819631187" y="4512.970681963119" width="222.73863607376256" height="222.73863607376188" as="geometry" />
        </mxCell>
        <mxCell id="-S-B5UiOrlPWXrYELMPt-5" value="" style="ellipse;whiteSpace=wrap;html=1;rotation=-45;" vertex="1" parent="-S-B5UiOrlPWXrYELMPt-14">
          <mxGeometry x="-6.130681963118718" y="71.36931803688094" width="235" height="80" as="geometry" />
        </mxCell>
        <mxCell id="-S-B5UiOrlPWXrYELMPt-6" value="data1" style="ellipse;whiteSpace=wrap;html=1;aspect=fixed;" vertex="1" parent="-S-B5UiOrlPWXrYELMPt-14">
          <mxGeometry x="15.709318036881314" y="7.029318036880795" width="50" height="50" as="geometry" />
        </mxCell>
        <mxCell id="-S-B5UiOrlPWXrYELMPt-7" value="data3" style="ellipse;whiteSpace=wrap;html=1;aspect=fixed;" vertex="1" parent="-S-B5UiOrlPWXrYELMPt-14">
          <mxGeometry x="45.709318036881314" y="127.0293180368808" width="50" height="50" as="geometry" />
        </mxCell>
        <mxCell id="-S-B5UiOrlPWXrYELMPt-8" value="data2" style="ellipse;whiteSpace=wrap;html=1;aspect=fixed;" vertex="1" parent="-S-B5UiOrlPWXrYELMPt-14">
          <mxGeometry x="120.70931803688131" y="47.029318036880795" width="50" height="50" as="geometry" />
        </mxCell>
        <mxCell id="-S-B5UiOrlPWXrYELMPt-11" value="" style="shape=flexArrow;endArrow=classic;html=1;rounded=0;endWidth=15;endSize=5.2;" edge="1" parent="-S-B5UiOrlPWXrYELMPt-14">
          <mxGeometry width="50" height="50" relative="1" as="geometry">
            <mxPoint x="65.70931803688131" y="43.029318036880795" as="sourcePoint" />
            <mxPoint x="98.86931803688128" y="67.0293180368808" as="targetPoint" />
          </mxGeometry>
        </mxCell>
        <mxCell id="-S-B5UiOrlPWXrYELMPt-12" value="" style="shape=flexArrow;endArrow=classic;html=1;rounded=0;endWidth=17;endSize=6.51;" edge="1" parent="-S-B5UiOrlPWXrYELMPt-14">
          <mxGeometry width="50" height="50" relative="1" as="geometry">
            <mxPoint x="128.86931803688128" y="95.86931803688094" as="sourcePoint" />
            <mxPoint x="88.86931803688128" y="127.0293180368808" as="targetPoint" />
          </mxGeometry>
        </mxCell>
        <mxCell id="-S-B5UiOrlPWXrYELMPt-16" value="" style="endArrow=classic;html=1;rounded=0;" edge="1" parent="1">
          <mxGeometry width="50" height="50" relative="1" as="geometry">
            <mxPoint x="565" y="4620" as="sourcePoint" />
            <mxPoint x="680" y="4620" as="targetPoint" />
          </mxGeometry>
        </mxCell>
      </root>
    </mxGraphModel>
  </diagram>
</mxfile>
